<?xml version="1.0" encoding="utf-8"?>
<!-- Generator: Adobe Illustrator 20.1.0, SVG Export Plug-In . SVG Version: 6.00 Build 0)  -->
<svg version="1.1" id="Layer_1" xmlns="http://www.w3.org/2000/svg" xmlns:xlink="http://www.w3.org/1999/xlink" x="0px" y="0px"
	 viewBox="0 0 435.8 121.7" style="enable-background:new 0 0 435.8 121.7;" xml:space="preserve">
<style type="text/css">
	.st0{fill:#FFFFFF;}
	.st1{fill:#63056D;}
</style>
<path class="st0" d="M423.8,121.7H12c-6.6,0-12-5.4-12-12V12C0,5.4,5.4,0,12,0h411.8c6.6,0,12,5.4,12,12v97.7
	C435.8,116.3,430.4,121.7,423.8,121.7z"/>
<g>
	<path d="M395.5,117h-15.3V38.3h27.3V105C407.5,111.6,402.1,117,395.5,117z"/>
	<path d="M362.4,60.1V38.3h62.9v12.9c0,4.9-4,8.9-8.9,8.9H362.4z"/>
</g>
<g>
	<path d="M339.6,115.8h-17.8c-5.2,0-9.5-4.2-9.5-9.5V37.1h27.3V115.8z"/>
	<path d="M312.4,58.1V37.2c0,0,0,0,0,0h43.7c0,0,0,0,0,0v13.7c0,4-3.2,7.2-7.2,7.2L312.4,58.1C312.4,58.1,312.4,58.1,312.4,58.1z"/>
	<path d="M321.3,115.6V95.1c0-0.1,0.1-0.2,0.2-0.2h27.4c4,0,7.2,3.2,7.2,7.2v13.5c0,0.1-0.1,0.2-0.2,0.2h-34.4
		C321.4,115.8,321.3,115.7,321.3,115.6z"/>
	<rect x="319.8" y="59.8" transform="matrix(-1.836970e-16 1 -1 -1.836970e-16 407.8962 -252.5946)" width="20.9" height="35.7"/>
</g>
<g>
	<path class="st1" d="M199.6,115.8H189v-59c0-10.9,8.8-19.7,19.7-19.7h7.6v62C216.3,108.3,208.8,115.8,199.6,115.8z"/>
	<circle class="st1" cx="202.7" cy="18.8" r="13.6"/>
</g>
<g>
	<rect x="64.7" y="37.1" class="st1" width="27.3" height="78.7"/>
	<g>
		<path class="st1" d="M38.8,115.8h-4.3c-12.7,0-22.9-10.3-22.9-22.9V37.1h0c15.1,0,27.3,12.2,27.3,27.3V115.8z"/>
		
			<rect x="49.7" y="73.5" transform="matrix(-1.836970e-16 1 -1 -1.836970e-16 165.4741 38.8314)" class="st1" width="27.3" height="57.3"/>
	</g>
</g>
<g>
	<rect x="225.7" y="37" transform="matrix(-1 -1.224647e-16 1.224647e-16 -1 478.6291 152.7387)" width="27.3" height="78.7"/>
	<g>
		<path d="M278.8,37h4.3c12.7,0,22.9,10.3,22.9,22.9v55.7h0c-15.1,0-27.3-12.2-27.3-27.3V37z"/>
		<rect x="240.7" y="22" transform="matrix(6.123234e-17 -1 1 6.123234e-17 203.6775 304.9902)" width="27.3" height="57.3"/>
	</g>
</g>
<g>
	
		<rect x="98.8" y="36.5" transform="matrix(-1 -1.224647e-16 1.224647e-16 -1 224.9633 151.6575)" class="st1" width="27.3" height="78.7"/>
	<g>
		<path class="st1" d="M152,36.5h4.3c12.7,0,22.9,10.3,22.9,22.9v55.7h0c-15.1,0-27.3-12.2-27.3-27.3V36.5z"/>
		
			<rect x="113.9" y="21.5" transform="matrix(6.123234e-17 -1 1 6.123234e-17 77.3852 177.6166)" class="st1" width="27.3" height="57.3"/>
	</g>
</g>
</svg>
