<?xml version="1.0" encoding="utf-8"?>
<!-- Generator: Adobe Illustrator 20.1.0, SVG Export Plug-In . SVG Version: 6.00 Build 0)  -->
<svg version="1.1" id="Layer_1" xmlns="http://www.w3.org/2000/svg" xmlns:xlink="http://www.w3.org/1999/xlink" x="0px" y="0px"
	 viewBox="0 0 30 30" style="enable-background:new 0 0 30 30;" xml:space="preserve">
<style type="text/css">
	.st0{display:none;}
	.st1{display:inline;fill:none;stroke:#62056C;stroke-width:0.5;stroke-miterlimit:10;}
	.st2{display:inline;fill:none;stroke:#62056C;stroke-width:0.5;stroke-linejoin:round;stroke-miterlimit:10;}
	.st3{fill:#FFFFFF;stroke:#FFFFFF;stroke-width:2;stroke-linecap:round;stroke-linejoin:round;stroke-miterlimit:10;}
</style>
<circle class="st0" cx="15" cy="15" r="15"/>
<g class="st0">
	<path class="st1" d="M15,14.4L15,14.4c-2.2,0-4.1-1.8-4.1-4.1V7.4c0-1.8,1.5-3.2,3.2-3.2h1.3c1.8,0,3.2,1.5,3.2,3.2v3.3
		C18.7,12.8,17.1,14.4,15,14.4z"/>
	<path class="st2" d="M23.2,21.2c0,0-4.5,1.9-8.2,1.9c-4,0-8.2-1.9-8.2-1.9v-2.9c0,0,0-1.7,1.7-2.1c2.1-0.4,3.4-1.1,3.5-1.7"/>
	<path class="st2" d="M6.8,21.2c0,0,4.5,1.9,8.2,1.9c4,0,8.2-1.9,8.2-1.9v-2.9c0,0,0-1.6-1.7-2.1c-2.1-0.5-3.4-1.1-3.5-1.7"/>
</g>
<line class="st3" x1="15" y1="21" x2="3.4" y2="9.4"/>
<line class="st3" x1="15" y1="21" x2="26.6" y2="9.4"/>
</svg>
